<mxfile host="app.diagrams.net" modified="2023-09-27T10:57:21.634Z" agent="Mozilla/5.0 (Macintosh; Intel Mac OS X 10.15; rv:109.0) Gecko/20100101 Firefox/117.0" version="21.8.2" etag="Ti97D1Ty_pQwxj-s9iaH" type="github">
  <diagram name="Page-1" id="pe7qktVRqtOAdhZTVcYb">
    <mxGraphModel>
      <root>
        <mxCell id="0" />
        <mxCell id="1" parent="0" />
      </root>
    </mxGraphModel>
  </diagram>
</mxfile>
